<svg width="24" height="24" viewBox="0 0 24 24" fill="none" xmlns="http://www.w3.org/2000/svg">
<circle cx="12" cy="12" r="12" fill="#F6E01D"/>
<path fill-rule="evenodd" clip-rule="evenodd" d="M5.86023 13.9688H5.40039V10.0611L5.86023 9.95996V13.9688ZM7.09132 11.1329L7.45162 11.3958L6.56571 12.5182L7.59132 13.7617L7.23626 14.0376L6.02554 12.5435L7.09132 11.1329ZM7.99922 13.2262C7.99922 12.947 8.09177 12.7339 8.27687 12.5868C8.46197 12.4398 8.73128 12.3664 9.08479 12.3668H9.61739V12.1904C9.61739 11.7629 9.43054 11.549 9.05685 11.5486C8.92954 11.5497 8.80285 11.5667 8.67967 11.5992C8.55525 11.6302 8.43388 11.6725 8.31703 11.7257L8.18141 11.3968C8.32109 11.3193 8.46993 11.26 8.62437 11.2204C8.7753 11.1793 8.93082 11.158 9.08712 11.1568C9.73439 11.1568 10.0578 11.5057 10.0574 12.2033V13.9727H9.71751L9.66221 13.6698C9.53056 13.778 9.38309 13.8649 9.22507 13.9274C9.08426 13.9852 8.93407 14.0161 8.78211 14.0186C8.5388 14.0186 8.34788 13.9486 8.20935 13.8086C8.07081 13.6686 8.00155 13.4757 8.00155 13.2298L7.99922 13.2262ZM8.86069 13.641C8.92702 13.6403 8.99306 13.6318 9.05743 13.6157C9.12689 13.5983 9.19514 13.5762 9.26174 13.5498C9.32868 13.5234 9.39283 13.4903 9.45324 13.451C9.50991 13.4146 9.56328 13.3733 9.61273 13.3274V12.6804H9.13427C8.89212 12.6804 8.71537 12.7225 8.604 12.8068C8.49262 12.8912 8.43713 13.0243 8.43752 13.2062C8.43752 13.4957 8.57858 13.6406 8.86069 13.641ZM10.8727 13.9689H11.3331V9.96006L10.8727 10.0612V13.9689ZM12.9233 11.3959L12.563 11.133L11.4978 12.5436L12.7085 14.0401L13.0636 13.7618L12.0386 12.5183L12.9233 11.3959ZM13.4719 13.2262C13.4719 12.947 13.5644 12.7339 13.7495 12.5868C13.9346 12.4398 14.2039 12.3664 14.5574 12.3668H15.0883V12.1904C15.0883 11.7629 14.9016 11.549 14.5283 11.5486C14.4008 11.5496 14.2739 11.5666 14.1506 11.5992C14.0262 11.6302 13.9048 11.6725 13.7879 11.7257L13.6529 11.3968C13.7924 11.3193 13.941 11.26 14.0953 11.2204C14.2462 11.1793 14.4017 11.158 14.558 11.1568C15.2049 11.1568 15.5283 11.5057 15.5283 12.2033V13.9727H15.1884L15.1331 13.6698C15.0013 13.7781 14.8537 13.8651 14.6954 13.9274C14.5548 13.9852 14.4048 14.0161 14.253 14.0186C14.0093 14.0186 13.8184 13.9486 13.6803 13.8086C13.5421 13.6686 13.4728 13.4757 13.4725 13.2298L13.4719 13.2262ZM14.3363 13.6445C14.4026 13.6439 14.4686 13.6354 14.533 13.6192C14.6031 13.6007 14.672 13.5775 14.7391 13.5498C14.8059 13.5232 14.8701 13.4901 14.9306 13.451C14.9872 13.4146 15.0406 13.3733 15.09 13.3274V12.6804H14.6122C14.3696 12.6804 14.1927 12.7225 14.0813 12.8068C13.9699 12.8912 13.9144 13.0243 13.9148 13.2062C13.9148 13.4957 14.0559 13.6406 14.338 13.641L14.3363 13.6445ZM18.2748 11.5321C18.0579 11.2827 17.7595 11.158 17.3796 11.158C17.0028 11.158 16.7052 11.2827 16.4867 11.5321C16.2682 11.7815 16.159 12.1388 16.159 12.6039C16.1594 13.0639 16.2678 13.4168 16.4844 13.6627C16.7009 13.9086 16.9993 14.0315 17.3796 14.0315C17.7634 14.0331 18.0627 13.9102 18.2777 13.6627C18.4927 13.4153 18.6002 13.0623 18.6002 12.6039C18.6002 12.1388 18.4917 11.7815 18.2748 11.5321ZM17.0689 11.5972C17.1654 11.5495 17.2722 11.5271 17.3796 11.5321V11.5327C17.4878 11.5271 17.5957 11.5492 17.6933 11.5969C17.7909 11.6446 17.875 11.7164 17.9378 11.8057C18.0659 11.9876 18.1299 12.2539 18.1299 12.6045C18.1307 12.9515 18.0666 13.2135 17.9378 13.3904C17.809 13.5672 17.6229 13.6557 17.3796 13.6557C17.2729 13.6615 17.1665 13.6403 17.07 13.594C16.9735 13.5476 16.8901 13.4776 16.8272 13.3904C16.698 13.217 16.6336 12.9549 16.634 12.6039C16.6343 12.2529 16.6988 11.9866 16.8272 11.8051C16.8892 11.7164 16.9723 11.6449 17.0689 11.5972Z" fill="black"/>
</svg>
